# xmcd
#
# Track frame offsets:
# 150
# 13627
# 30319
# 44372
# 60811
# 76626
# 90656
# 105451
# 122060
# 138967
# 153993
# 169853
# 183476
# 196181
# 217321
# 230124
# 253671
#
# Disc length: 3749 seconds
#
#
# Revision: 0
# Processed by: cddbd v1.5.1PL0 Copyright (c) Steve Scherf et al.
# Submitted via: FreeRIP 2.91 
#
DISCID=d70ea311
DTITLE=Jonny Hill Ich hab noch viele Träume - Ich hab noch viele Träume Jonny Hill
DYEAR=1900
DGENRE=Country
TTITLE0=Ich hab noch viele Träume
TTITLE1=Wenn Dich jemand vermisst
TTITLE2=Elvis zum Frühstück
TTITLE3=Nimm mich fest in Deine Arme
TTITLE4=Lass sie einfach gehn
TTITLE5=Glaub an Dich
TTITLE6=Darling
TTITLE7=Auch für Dich schlägt ein Herz
TTITLE8=Du hast mir wieder Mut gemacht
TTITLE9=Das Schicksal
TTITLE10=Jambalaya
TTITLE11=Und würde ich noch mal geborn
TTITLE12=Ich glaub an Wunder
TTITLE13=Wo warst Du
TTITLE14=Ich bin für die Liebe
TTITLE15=Zusammensteh'n
TTITLE16=Bonus
EXTD=
EXTT0=
EXTT1=
EXTT2=
EXTT3=
EXTT4=
EXTT5=
EXTT6=
EXTT7=
EXTT8=
EXTT9=
EXTT10=
EXTT11=
EXTT12=
EXTT13=
EXTT14=
EXTT15=
EXTT16=
PLAYORDER=
